<?xml version="1.0" encoding="UTF-8"?>
<svg xmlns="http://www.w3.org/2000/svg" xmlns:xlink="http://www.w3.org/1999/xlink" viewBox="0 0 1028 481.91">
  <defs>
    <style>
      .cls-1 {
        fill: #ce5fb2;
      }

      .cls-1, .cls-2, .cls-3, .cls-4, .cls-5, .cls-6, .cls-7, .cls-8, .cls-9, .cls-10, .cls-11, .cls-12, .cls-13, .cls-14, .cls-15, .cls-16, .cls-17, .cls-18, .cls-19, .cls-20, .cls-21, .cls-22, .cls-23, .cls-24, .cls-25, .cls-26, .cls-27, .cls-28, .cls-29, .cls-30, .cls-31, .cls-32, .cls-33, .cls-34, .cls-35, .cls-36, .cls-37 {
        stroke-width: 0px;
      }

      .cls-38 {
        fill: #ba7f7f;
      }

      .cls-38, .cls-39, .cls-40, .cls-41, .cls-42, .cls-43, .cls-44, .cls-45, .cls-46, .cls-47, .cls-48, .cls-49, .cls-50, .cls-51, .cls-52, .cls-53, .cls-54, .cls-55, .cls-56, .cls-57, .cls-58, .cls-59, .cls-60, .cls-61, .cls-62 {
        stroke-miterlimit: 10;
      }

      .cls-38, .cls-39, .cls-40, .cls-41, .cls-42, .cls-43, .cls-44, .cls-46, .cls-47, .cls-48, .cls-49, .cls-50, .cls-51, .cls-63, .cls-52, .cls-64, .cls-53, .cls-54, .cls-55, .cls-57, .cls-58, .cls-65, .cls-60, .cls-61, .cls-62 {
        stroke-width: 2px;
      }

      .cls-38, .cls-39, .cls-40, .cls-41, .cls-42, .cls-43, .cls-44, .cls-46, .cls-47, .cls-49, .cls-50, .cls-52, .cls-64, .cls-54, .cls-55, .cls-57, .cls-58, .cls-65, .cls-60, .cls-61, .cls-62 {
        stroke: #000;
      }

      .cls-2, .cls-4, .cls-6 {
        mix-blend-mode: multiply;
      }

      .cls-2, .cls-6 {
        opacity: .3;
      }

      .cls-2, .cls-12 {
        fill: #d5d7e3;
      }

      .cls-3 {
        fill: #e1e2ea;
      }

      .cls-39, .cls-19 {
        fill: #dd94c6;
      }

      .cls-4 {
        opacity: .21;
      }

      .cls-40 {
        fill: #e2a183;
      }

      .cls-5 {
        fill: #ec7165;
      }

      .cls-6, .cls-46 {
        fill: #c5c8d8;
      }

      .cls-7, .cls-62 {
        fill: #fb847d;
      }

      .cls-41 {
        fill: #f1a9a5;
      }

      .cls-8 {
        fill: #9ba0bd;
      }

      .cls-9 {
        fill: #eaa105;
      }

      .cls-10 {
        fill: #4e7a8f;
        opacity: .6;
      }

      .cls-42 {
        fill: #a62973;
      }

      .cls-66 {
        clip-path: url(#clippath-2);
      }

      .cls-67 {
        isolation: isolate;
      }

      .cls-43, .cls-16 {
        fill: #f0f1f5;
      }

      .cls-44, .cls-28 {
        fill: #020f2b;
      }

      .cls-45 {
        stroke: #f0f1f5;
      }

      .cls-45, .cls-18, .cls-64, .cls-58 {
        fill: #fff;
      }

      .cls-13 {
        fill: #b54a12;
      }

      .cls-14, .cls-48, .cls-51, .cls-63, .cls-53, .cls-56, .cls-68, .cls-59 {
        fill: none;
      }

      .cls-69 {
        clip-path: url(#clippath-1);
      }

      .cls-15 {
        fill: #d15449;
      }

      .cls-17 {
        fill: #4e175b;
      }

      .cls-48 {
        stroke: #c43f00;
      }

      .cls-49, .cls-30 {
        fill: #e4786b;
      }

      .cls-50 {
        fill: #a25943;
      }

      .cls-20 {
        fill: #dd5c58;
      }

      .cls-21 {
        fill: #fafafa;
      }

      .cls-22 {
        fill: #c43f00;
      }

      .cls-51 {
        stroke: #659d67;
      }

      .cls-23 {
        fill: #d87456;
      }

      .cls-63, .cls-64, .cls-68 {
        stroke-linejoin: round;
      }

      .cls-63, .cls-56 {
        stroke: #fff;
      }

      .cls-63, .cls-68 {
        stroke-linecap: round;
      }

      .cls-24 {
        fill: #74391e;
      }

      .cls-52 {
        fill: #f1aba5;
      }

      .cls-70 {
        clip-path: url(#clippath);
      }

      .cls-53 {
        stroke: #eaa105;
      }

      .cls-71 {
        clip-path: url(#clippath-3);
      }

      .cls-25 {
        fill: #e89400;
      }

      .cls-26 {
        fill: #b0b4cb;
      }

      .cls-54, .cls-65 {
        fill: #ee5064;
      }

      .cls-27 {
        fill: #fbfbfc;
      }

      .cls-55, .cls-36 {
        fill: #d77347;
      }

      .cls-56 {
        stroke-width: 1.5px;
      }

      .cls-57 {
        fill: #672376;
      }

      .cls-29 {
        fill: #c20034;
      }

      .cls-31 {
        fill: #f79288;
      }

      .cls-32 {
        fill: #ffb72f;
      }

      .cls-68 {
        stroke: #e1e2ea;
        stroke-width: 5px;
      }

      .cls-33 {
        fill: #ffc557;
      }

      .cls-59 {
        stroke: #d36462;
      }

      .cls-60 {
        fill: #ffebf1;
      }

      .cls-34 {
        fill: #530046;
      }

      .cls-35 {
        fill: #83442d;
      }

      .cls-61 {
        fill: #efbebd;
      }

      .cls-37 {
        fill: #fdfaf7;
      }
    </style>
    <clipPath id="clippath">
      <circle class="cls-14" cx="386.1" cy="213.19" r="41.74" transform="translate(121.66 566.18) rotate(-82.07)"/>
    </clipPath>
    <clipPath id="clippath-1">
      <circle class="cls-14" cx="654.68" cy="213.19" r="41.74" transform="translate(387.89 847.92) rotate(-85.24)"/>
    </clipPath>
    <clipPath id="clippath-2">
      <circle class="cls-14" cx="530.12" cy="198.98" r="69.95" transform="translate(260.12 696.69) rotate(-82.09)"/>
    </clipPath>
    <clipPath id="clippath-3">
      <circle class="cls-14" cx="399.54" cy="78.67" r="22.24"/>
    </clipPath>
  </defs>
  <g class="cls-67">
    <g id="Layer_2" data-name="Layer 2">
      <g id="Layer_2-2" data-name="Layer 2">
        <g>
          <rect class="cls-14" width="1028" height="480"/>
          <path class="cls-19" d="m303.09,480.91c-138.27-178.75,29.14-254.19,54.63-370.3C383.35-6.13,509.99-7.17,615.84,63.8c105.85,70.97,208.16,154.35,137.21,272.25-61.49,102.18-51.36,95.18-42.06,144.86h-407.9Z"/>
          <g>
            <g>
              <g>
                <circle class="cls-1" cx="579.43" cy="386.34" r="9.76" transform="translate(-103.47 522.87) rotate(-45)"/>
                <circle class="cls-1" cx="605.67" cy="386.34" r="9.76" transform="translate(-101.47 259.65) rotate(-22.38)"/>
                <circle class="cls-1" cx="631.91" cy="386.34" r="9.76" transform="translate(-99.49 269.64) rotate(-22.38)"/>
                <circle class="cls-1" cx="658.15" cy="386.34" r="9.76" transform="translate(130.45 937.65) rotate(-76.67)"/>
              </g>
              <g>
                <circle class="cls-1" cx="579.43" cy="414.28" r="9.76" transform="translate(43.51 883.49) rotate(-76.77)"/>
                <circle class="cls-1" cx="605.67" cy="414.28" r="9.76" transform="translate(99.95 945.99) rotate(-80.81)"/>
                <circle class="cls-1" cx="631.91" cy="414.28" r="9.76" transform="translate(122 971.89) rotate(-80.81)"/>
                <circle class="cls-1" cx="658.15" cy="414.28" r="9.76" transform="translate(-100.17 586.72) rotate(-45)"/>
              </g>
              <g>
                <circle class="cls-1" cx="579.43" cy="442.23" r="9.76"/>
                <circle class="cls-1" cx="605.67" cy="442.23" r="9.76"/>
                <circle class="cls-1" cx="631.91" cy="442.23" r="9.76"/>
                <circle class="cls-1" cx="658.15" cy="442.23" r="9.76"/>
              </g>
            </g>
            <g>
              <g>
                <circle class="cls-1" cx="473.97" cy="38.71" r="9.76"/>
                <circle class="cls-1" cx="500.21" cy="38.71" r="9.76"/>
                <circle class="cls-1" cx="526.45" cy="38.71" r="9.76"/>
              </g>
              <g>
                <circle class="cls-1" cx="447.73" cy="66.66" r="9.76"/>
                <circle class="cls-1" cx="473.97" cy="66.66" r="9.76"/>
                <circle class="cls-1" cx="500.21" cy="66.66" r="9.76"/>
                <circle class="cls-1" cx="526.45" cy="66.66" r="9.76"/>
              </g>
              <g>
                <circle class="cls-1" cx="447.73" cy="94.61" r="9.76" transform="translate(-.91 184.78) rotate(-23.3)"/>
                <circle class="cls-1" cx="473.97" cy="94.61" r="9.76" transform="translate(272.61 533.98) rotate(-76.67)"/>
                <circle class="cls-1" cx="500.21" cy="94.61" r="9.76" transform="translate(1.65 197.54) rotate(-22.38)"/>
                <circle class="cls-1" cx="526.45" cy="94.61" r="9.76" transform="translate(3.62 207.53) rotate(-22.38)"/>
              </g>
            </g>
          </g>
          <path class="cls-46" d="m569.59,473.77c-16.38-2.72-28.39-17.06-28.39-33.5,0-2.44.27-4.94.82-7.45l1.72-7.98,7.54-34.98h-123.44l-7.56,34.98-3.17,14.66c-4.73,21.26,11.45,41.41,33.22,41.41h124.92v-6.67c-1.93,0-3.82-.15-5.65-.46Zm-95.84-59.49c1.39-9.69,10.38-17.53,20.06-17.53,1.32,0,2.57.15,3.77.42,7.59,1.74,12.45,8.74,11.23,17.11-.57,3.97-2.41,7.63-5.05,10.56-2.94,3.27-6.87,5.65-11.15,6.55-1.26.28-2.56.42-3.86.42-5.72,0-10.4-2.74-12.99-6.97-1.81-2.93-2.59-6.59-2.02-10.56Z"/>
          <path class="cls-58" d="m573.35,466.46c-1.73-1.36-3.32-2.89-4.74-4.56-1.94-2.26-3.58-4.77-4.88-7.47-.39-.82-.76-1.67-1.08-2.53-.81-2.09-1.41-4.26-1.78-6.51-.71-4.18-.64-8.58.35-13.03l1.62-7.52,7.53-34.98h-135.04l-7.58,34.98-3.54,16.33c-.32,1.41-.51,2.82-.59,4.21-.15,2.22,0,4.4.39,6.51.15.86.36,1.69.6,2.53.77,2.67,1.96,5.19,3.49,7.47,1.12,1.66,2.41,3.19,3.86,4.56,4.75,4.51,11.18,7.32,18.4,7.32h144.07c-8.06,0-15.35-2.76-21.09-7.32Zm-91.96-52.17c1.21-8.38,8.09-15.38,16.2-17.11,1.26-.28,2.56-.42,3.86-.42,9.69,0,16.41,7.85,15.01,17.53-.57,3.97-2.41,7.63-5.06,10.56-3.8,4.24-9.28,6.97-15,6.97-1.32,0-2.57-.15-3.77-.42-3.99-.91-7.23-3.29-9.21-6.55-1.81-2.93-2.59-6.59-2.02-10.56Z"/>
          <rect class="cls-58" x="476.67" y="473.77" width="141.73" height="7.14"/>
          <path class="cls-46" d="m570.36,389.86l-6.03,28.01h-56.39c.4-1.16.69-2.36.87-3.59,1.22-8.37-3.64-15.36-11.24-17.1-8.11,1.73-14.99,8.73-16.19,17.1-.18,1.23-.23,2.43-.16,3.59h-59.45l6.05-28.01h142.53Z"/>
          <rect class="cls-38" x="283.33" y="98.4" width="449.67" height="301.91" rx="17.62" ry="17.62"/>
          <path class="cls-61" d="m742.53,116.41v265.89c0,9.94-8.13,18.01-18.16,18.01h-413.34c-10.03,0-18.16-8.06-18.16-18.01V116.41c0-9.95,8.13-18.01,18.16-18.01h413.34c8.9,0,16.3,6.34,17.85,14.72.21,1.06.31,2.17.31,3.29Z"/>
          <rect class="cls-38" x="302.31" y="107.76" width="430.94" height="283.19" rx="13.29" ry="13.29"/>
          <rect class="cls-43" x="302.31" y="113.72" width="423.38" height="277.23" rx="13.29" ry="13.29"/>
          <path class="cls-62" d="m725.69,127.65v2.29h-423.38v-2.29c0-7.69,6.24-13.93,13.93-13.93h395.51c7.69,0,13.93,6.24,13.93,13.93Z"/>
          <path class="cls-18" d="m321.74,121.83c0,2.12-1.72,3.84-3.84,3.84s-3.84-1.72-3.84-3.84,1.72-3.84,3.84-3.84,3.84,1.72,3.84,3.84Z"/>
          <path class="cls-18" d="m335.25,121.83c0,2.12-1.72,3.84-3.84,3.84s-3.84-1.72-3.84-3.84,1.72-3.84,3.84-3.84,3.84,1.72,3.84,3.84Z"/>
          <path class="cls-18" d="m348.75,121.83c0,2.12-1.72,3.84-3.84,3.84s-3.84-1.72-3.84-3.84,1.72-3.84,3.84-3.84,3.84,1.72,3.84,3.84Z"/>
          <g>
            <rect class="cls-6" x="577.69" y="145.14" width="117.99" height="222.31" rx="10.46" ry="10.46"/>
            <path class="cls-27" d="m591.22,149.42v202.55c0,6.76,5.48,12.24,12.24,12.24h102.44c6.76,0,12.24-5.47,12.24-12.23,0-24.3,0-178.26,0-202.56,0-6.76-5.47-12.23-12.23-12.23-40.36,0-62.11,0-102.47,0-6.76,0-12.23,5.48-12.23,12.24Z"/>
          </g>
          <g>
            <rect class="cls-6" x="445.11" y="145.14" width="117.99" height="222.31" rx="10.46" ry="10.46"/>
            <path class="cls-18" d="m457.3,149.42v202.55c0,6.76,5.48,12.24,12.24,12.24h102.44c6.76,0,12.24-5.47,12.24-12.23,0-24.3,0-178.26,0-202.56,0-6.76-5.47-12.23-12.23-12.23-40.36,0-62.11,0-102.47,0-6.76,0-12.23,5.48-12.23,12.24Z"/>
          </g>
          <g>
            <rect class="cls-6" x="311.78" y="145.14" width="117.99" height="222.31" rx="10.46" ry="10.46"/>
            <path class="cls-27" d="m322.64,149.42v202.55c0,6.76,5.48,12.24,12.24,12.24h102.44c6.76,0,12.24-5.47,12.24-12.23,0-24.3,0-178.26,0-202.56,0-6.76-5.47-12.23-12.23-12.23-40.36,0-62.11,0-102.47,0-6.76,0-12.23,5.48-12.23,12.24Z"/>
          </g>
          <line class="cls-68" x1="480.2" y1="272.42" x2="561.32" y2="272.42"/>
          <line class="cls-68" x1="480.2" y1="285.8" x2="561.32" y2="285.8"/>
          <line class="cls-68" x1="480.2" y1="299.18" x2="561.32" y2="299.18"/>
          <line class="cls-68" x1="500.99" y1="312.34" x2="540.54" y2="312.34"/>
          <line class="cls-68" x1="480.2" y1="156.38" x2="561.32" y2="156.38"/>
          <line class="cls-68" x1="345.54" y1="272.42" x2="426.66" y2="272.42"/>
          <line class="cls-68" x1="345.54" y1="285.8" x2="426.66" y2="285.8"/>
          <line class="cls-68" x1="345.54" y1="299.18" x2="426.66" y2="299.18"/>
          <line class="cls-68" x1="366.32" y1="312.34" x2="405.87" y2="312.34"/>
          <line class="cls-68" x1="345.54" y1="156.38" x2="426.66" y2="156.38"/>
          <line class="cls-68" x1="614.12" y1="272.42" x2="695.24" y2="272.42"/>
          <line class="cls-68" x1="614.12" y1="285.8" x2="695.24" y2="285.8"/>
          <line class="cls-68" x1="614.12" y1="299.18" x2="695.24" y2="299.18"/>
          <line class="cls-68" x1="634.9" y1="312.34" x2="674.45" y2="312.34"/>
          <line class="cls-68" x1="614.12" y1="156.38" x2="695.24" y2="156.38"/>
          <circle class="cls-12" cx="386.1" cy="213.19" r="41.74" transform="translate(121.66 566.18) rotate(-82.07)"/>
          <g class="cls-70">
            <path class="cls-42" d="m405.96,232.28l-5.88-1.68h0s-6.58-2.08-6.58-2.08l-21.37,1.74-4.84,1.29s0,0,0,0c0,0-13.45.84-14.61,11.32-.83,7.46-2.07,31.76-.35,51.4l15.21-5.98c.42-1.79.81-3.53,1.17-5.21h32.97l.35-5.7,20.81-3.12s-3.26-35.23-16.87-41.99"/>
            <path class="cls-47" d="m373.17,194.81c11.27-.23,6.97-16.91-3.37-16.14-10.34.77-10.04,16.41,3.37,16.14Z"/>
            <path class="cls-35" d="m395.94,224.61h0c-7.84,2.09-14.65,1.14-14.09-13.22h0l13.66-.44.44,13.65Z"/>
            <path class="cls-25" d="m398.58,224.66c-2.2-.94-3.83-3.02-4.06-5.57-.33-3.68,2.39-6.95,6.07-7.29,3.68-.33,6.95,2.39,7.29,6.08.16,1.78-.38,3.52-1.53,4.9-1.15,1.38-2.76,2.22-4.55,2.39-1.14.1-2.24-.09-3.22-.51Zm4.69-11.07c-.78-.33-1.65-.48-2.55-.4-2.92.27-5.08,2.85-4.81,5.77.27,2.91,2.85,5.07,5.77,4.81,1.41-.13,2.69-.8,3.6-1.89.91-1.09,1.34-2.47,1.21-3.88-.18-2.02-1.48-3.67-3.22-4.41Z"/>
            <path class="cls-50" d="m395.81,221.99h.08c6.71-.62,11.66-6.55,11.05-13.26l-.92-10.17c-.65-7.2-7.02-12.51-14.22-11.85l-5.3.48c-7.2.65-12.51,7.02-11.85,14.22l.2,2.16c-1.36-.43-2.64-.19-3.8.4-4.76,2.41-3.32,13.04,4.46,12.62l.39,12.13-12.57,3.55c12.16,21.23,38.73,16.87,42.64,0l-9.92-3-.23-7.28Z"/>
            <path class="cls-11" d="m403.02,204.57c0,1.21-.69,2.2-1.54,2.2s-1.54-.98-1.54-2.2.69-2.2,1.54-2.2,1.54.98,1.54,2.2Z"/>
            <path class="cls-47" d="m374.67,208.64s15.38-3.6,16.71-21.73c-24.48-2.27-21.99,16.92-16.71,21.73Z"/>
            <path class="cls-47" d="m385.02,187.17s15.93-1.06,20.72,16.38c.34-14.83-9.25-17.93-20.72-16.38Z"/>
            <path class="cls-11" d="m401.13,196.33c-3.66-.05-3.82-2.01-1.02-2.39,3.02-.41,5.56,2.45,1.02,2.39Z"/>
            <path class="cls-11" d="m388.32,197.49c-3.66-.05-3.82-2.01-1.02-2.39,3.02-.41,5.56,2.45,1.02,2.39Z"/>
            <path class="cls-37" d="m396.77,213.34c-1.09-.22-2.88-.41-5.29-.1-.67.09-1.04.86-.66,1.42,2.78,4.1,5.32,1.74,6.5.14.4-.55.12-1.32-.55-1.46Z"/>
            <path class="cls-24" d="m397.47,212.47l.17-1.38c1.39.17,2.31-.66,2.71-1.49.39-.82.46-2.04-.53-3-1.27-1.23-2.6-2.68-3.74-4.94l1.24-.63c1.05,2.07,2.29,3.42,3.47,4.57,1.25,1.22,1.57,3.02.82,4.6-.76,1.59-2.39,2.49-4.14,2.27Z"/>
            <rect class="cls-35" x="373.56" y="207.2" width="1.4" height="6.49" transform="translate(-25.74 366.52) rotate(-50.66)"/>
            <path class="cls-25" d="m372.94,226.25c-2.2-.94-3.83-3.02-4.06-5.57-.2-2.17.68-4.3,2.34-5.72l.9,1.06c-1.31,1.12-2.01,2.81-1.85,4.53.27,2.92,2.85,5.07,5.77,4.81,2.92-.27,5.08-2.85,4.81-5.77-.27-2.92-2.85-5.08-5.77-4.81l-.13-1.39c3.69-.33,6.95,2.39,7.29,6.07.33,3.68-2.39,6.95-6.07,7.29-1.14.1-2.24-.09-3.22-.51Z"/>
            <path class="cls-11" d="m392.16,205.37c0,1.21-.69,2.2-1.54,2.2s-1.54-.98-1.54-2.2.69-2.2,1.54-2.2,1.54.98,1.54,2.2Z"/>
          </g>
          <circle class="cls-12" cx="654.68" cy="213.19" r="41.74" transform="translate(387.89 847.92) rotate(-85.24)"/>
          <g class="cls-69">
            <g>
              <path class="cls-49" d="m646.98,243.97c2.47,21.04,13.43,32.33,25.23,48.11,2.41,3.23,6.43,4.84,10.4,4.15h0c7.06-1.22,10.95-8.91,7.75-15.32l-20.95-43.63c-1.24-2.49-3.26-4.38-5.66-5.49-2.21-1.02-4.74-1.37-7.27-.88-6.09,1.19-10.22,6.89-9.5,13.06Z"/>
              <path class="cls-58" d="m658.94,234.51l1.3-1.07c2.91-2.39,2.94-6.83.07-9.25l-4.52-3.81-6.35,9.57,9.5,4.57Z"/>
              <g>
                <g>
                  <g>
                    <path class="cls-11" d="m669.69,193.43s1.69-5.11.89-7.54c-.62-1.87-5.02-6.86-5.02-6.86-8.26.75-21.33,4.37-22.44,5.28-1.11.91-5.53,8.7-7.56,11.68-2.88,4.24-2.97,6.11,3.49,14.15-1.56,3.37-.68,6.26,2.64,7.72l1.86-17.9,26.13-6.54Z"/>
                    <path class="cls-40" d="m673.82,200.07c-.48-11.05-13.35-13.63-16.25-13.14-3.2.54-6.2,1.43-8.56,3.38-1.81,1.49-3.26,3.39-4.25,5.54-.58,1.29-1,2.67-1.2,4.12-.11.7-.17,1.43-.18,2.17l-.11.91c-2.02-1.5-3.87-1.35-5.48-.51-3.36,1.75-3.53,8.14.25,11.1,1.16.91,2.51,1.23,3.83,1.11l-.02.37-.77,6.48h.4s-.65,11.52-.65,11.52l17.57,1.48,2.51-13.21h.89c6.69.01,12.13-5.39,12.15-12.08l.02-7.07c0-.74-.12-1.46-.15-2.17Z"/>
                    <path class="cls-23" d="m661.93,214.89c-.77.13-1.67.09-2.45-.31-.79-.4-1.73-1.32-1.77-3.37l1.51-.03c.02,1.05.34,1.74.95,2.06.81.41,1.97.14,2.34-.12l.86,1.24c-.32.22-.84.43-1.43.53Z"/>
                    <path class="cls-11" d="m670.53,204.49c0,1.15-.61,2.09-1.37,2.09-.76,0-1.38-.93-1.39-2.08,0-1.15.61-2.09,1.37-2.09.76,0,1.38.93,1.39,2.08Z"/>
                    <path class="cls-11" d="m644.77,207.97c7.4-1.45.74-17.26.74-17.26,0,0-7.95-2.38-6.06,16.5l5.31.76Z"/>
                    <path class="cls-23" d="m665.34,211.75c-.28,0-.56-.03-.84-.09l.27-1.22c1.35.29,2.34-.44,2.81-1.22.46-.77.64-1.97-.25-3.01-1.11-1.3-2.26-2.82-3.16-5.1l1.16-.46c.83,2.11,1.91,3.53,2.95,4.74,1.09,1.27,1.23,3.03.37,4.47-.72,1.2-1.96,1.89-3.31,1.89Z"/>
                    <rect class="cls-23" x="641" y="207.44" width="1.25" height="4.06" transform="translate(41.42 518.2) rotate(-45.3)"/>
                    <path class="cls-11" d="m670.11,197.73c-3.52-.44-3.47-2.35-.72-2.42,2.95-.07,5.1,2.97.72,2.42Z"/>
                    <path class="cls-11" d="m657.01,197.54c-3.4,1.02-4.12-.74-1.64-1.92,2.67-1.26,5.87.64,1.64,1.92Z"/>
                    <path class="cls-11" d="m645.45,200.21c3.05.26,5.6-2.12,5.6-2.12l-.13-8.59-7.26,1.83,1.79,8.88Z"/>
                    <path class="cls-11" d="m659.66,205.2c0,1.15-.61,2.09-1.37,2.09-.76,0-1.38-.93-1.39-2.08,0-1.15.61-2.09,1.37-2.09.76,0,1.38.93,1.39,2.08Z"/>
                  </g>
                  <polygon class="cls-11" points="648.43 194.7 648.56 207.83 645.12 208.32 642.83 197.96 648.43 194.7"/>
                  <path class="cls-11" d="m646.16,191.77l15.07-3.51c-6.96-5.65-14.99-.89-15.07,3.51Z"/>
                  <path class="cls-11" d="m655.92,187.25c7,7.06,13.57,1,13.57,1-4.08-6.3-13.57-1-13.57-1Z"/>
                </g>
                <path class="cls-49" d="m677.58,299.43l-36.09,4.4-1.02.28-.52.04-8.49,2.37s-1.79-12.08-5.55-29.58c-1.67-7.81-4.63-16.07-4.06-25.08,1.52-23.68,19.37-27.78,18.45-26.56l22.69,10.21c1.26,2.6,3.79,7.42,6.11,13.4.18.45.35.92.51,1.38.53,1.58.97,3.21,1.25,4.91.08.47.16.97.18,1.48.09.73.14,1.48.15,2.22.04,4.41-1.22,9.01-4.76,13.47l.12.28.02.06,11.01,26.72Z"/>
                <polygon class="cls-64" points="651.68 230.3 639.52 225.17 663.54 255.78 659.39 233.89 651.68 230.3"/>
                <path class="cls-30" d="m677.59,299.43l-15.61,2.02-24.47,3.16c-.28-1.39-.61-3.13-.99-5.13v-.02c-2.46-13.32-6.45-38.18-6.12-48.01l4.43,2.74h0s21.57,13.36,21.57,13.36l13.26-7.16,7.92,39.04Z"/>
              </g>
              <polygon class="cls-11" points="653.25 230.96 651.8 231.88 649.06 234.85 654.62 237.48 653.61 243.12 664.19 256.61 660.4 239.42 656.82 236.68 656.95 232.76 653.25 230.96"/>
              <path class="cls-58" d="m649.46,237.84l2.67-3.84c3.17-4.56,1.34-11.09-3.9-12.93-.24-.08-.48-.16-.72-.22l-7.15-1.87-2.6,6.73,11.7,12.13Z"/>
            </g>
          </g>
          <g>
            <path class="cls-6" d="m472.14,377.76h90.66c5.68,0,10.28-4.6,10.28-10.28h0c0-5.68-4.6-10.28-10.28-10.28h-90.66c-5.68,0-10.28,4.6-10.28,10.28h0c0,5.68,4.6,10.28,10.28,10.28Z"/>
            <path class="cls-45" d="m480.93,371.22h90.66c5.68,0,10.28-4.6,10.28-10.28h0c0-5.68-4.6-10.28-10.28-10.28h-90.66c-5.68,0-10.28,4.6-10.28,10.28h0c0,5.68,4.6,10.28,10.28,10.28Z"/>
            <g>
              <polygon class="cls-32" points="490.84 354.22 492.68 357.96 496.8 358.55 493.82 361.46 494.52 365.57 490.84 363.63 487.15 365.57 487.85 361.46 484.87 358.55 488.99 357.96 490.84 354.22"/>
              <polygon class="cls-32" points="508.55 354.22 510.39 357.96 514.51 358.55 511.53 361.46 512.24 365.57 508.55 363.63 504.86 365.57 505.57 361.46 502.59 358.55 506.71 357.96 508.55 354.22"/>
              <polygon class="cls-32" points="526.26 354.22 528.11 357.96 532.23 358.55 529.25 361.46 529.95 365.57 526.26 363.63 522.58 365.57 523.28 361.46 520.3 358.55 524.42 357.96 526.26 354.22"/>
              <polygon class="cls-32" points="543.98 354.22 545.82 357.96 549.94 358.55 546.96 361.46 547.66 365.57 543.98 363.63 540.29 365.57 540.99 361.46 538.01 358.55 542.13 357.96 543.98 354.22"/>
              <polygon class="cls-12" points="561.69 354.22 563.53 357.96 567.65 358.55 564.67 361.46 565.38 365.57 561.69 363.63 558 365.57 558.71 361.46 555.73 358.55 559.85 357.96 561.69 354.22"/>
              <polygon class="cls-32" points="561.69 354.22 561.69 363.62 558 365.56 558.71 361.46 555.73 358.55 559.85 357.95 561.69 354.22"/>
            </g>
          </g>
          <g>
            <path class="cls-6" d="m336.02,377.76h90.66c5.68,0,10.28-4.6,10.28-10.28h0c0-5.68-4.6-10.28-10.28-10.28h-90.66c-5.68,0-10.28,4.6-10.28,10.28h0c0,5.68,4.6,10.28,10.28,10.28Z"/>
            <path class="cls-45" d="m344.81,371.22h90.66c5.68,0,10.28-4.6,10.28-10.28h0c0-5.68-4.6-10.28-10.28-10.28h-90.66c-5.68,0-10.28,4.6-10.28,10.28h0c0,5.68,4.6,10.28,10.28,10.28Z"/>
            <g>
              <polygon class="cls-32" points="354.72 354.22 356.56 357.96 360.68 358.55 357.7 361.46 358.4 365.57 354.72 363.63 351.03 365.57 351.74 361.46 348.75 358.55 352.87 357.96 354.72 354.22"/>
              <polygon class="cls-32" points="372.43 354.22 374.27 357.96 378.39 358.55 375.41 361.46 376.12 365.57 372.43 363.63 368.74 365.57 369.45 361.46 366.47 358.55 370.59 357.96 372.43 354.22"/>
              <polygon class="cls-12" points="390.14 354.22 391.99 357.96 396.11 358.55 393.13 361.46 393.83 365.57 390.14 363.63 386.46 365.57 387.16 361.46 384.18 358.55 388.3 357.96 390.14 354.22"/>
              <polygon class="cls-12" points="407.86 354.22 409.7 357.96 413.82 358.55 410.84 361.46 411.54 365.57 407.86 363.63 404.17 365.57 404.87 361.46 401.89 358.55 406.01 357.96 407.86 354.22"/>
              <polygon class="cls-12" points="425.57 354.22 427.41 357.96 431.53 358.55 428.55 361.46 429.26 365.57 425.57 363.63 421.88 365.57 422.59 361.46 419.61 358.55 423.73 357.96 425.57 354.22"/>
            </g>
          </g>
          <g>
            <path class="cls-6" d="m606.05,377.76h90.66c5.68,0,10.28-4.6,10.28-10.28h0c0-5.68-4.6-10.28-10.28-10.28h-90.66c-5.68,0-10.28,4.6-10.28,10.28h0c0,5.68,4.6,10.28,10.28,10.28Z"/>
            <path class="cls-45" d="m614.85,371.22h90.66c5.68,0,10.28-4.6,10.28-10.28h0c0-5.68-4.6-10.28-10.28-10.28h-90.66c-5.68,0-10.28,4.6-10.28,10.28h0c0,5.68,4.6,10.28,10.28,10.28Z"/>
            <g>
              <polygon class="cls-32" points="624.75 354.22 626.59 357.96 630.72 358.55 627.73 361.46 628.44 365.57 624.75 363.63 621.07 365.57 621.77 361.46 618.79 358.55 622.91 357.96 624.75 354.22"/>
              <polygon class="cls-32" points="642.46 354.22 644.31 357.96 648.43 358.55 645.45 361.46 646.15 365.57 642.46 363.63 638.78 365.57 639.48 361.46 636.5 358.55 640.62 357.96 642.46 354.22"/>
              <polygon class="cls-32" points="660.18 354.22 662.02 357.96 666.14 358.55 663.16 361.46 663.86 365.57 660.18 363.63 656.49 365.57 657.2 361.46 654.21 358.55 658.33 357.96 660.18 354.22"/>
              <polygon class="cls-12" points="677.89 354.22 679.73 357.96 683.86 358.55 680.87 361.46 681.58 365.57 677.89 363.63 674.2 365.57 674.91 361.46 671.93 358.55 676.05 357.96 677.89 354.22"/>
              <polygon class="cls-12" points="695.6 354.22 697.45 357.96 701.57 358.55 698.59 361.46 699.29 365.57 695.6 363.63 691.92 365.57 692.62 361.46 689.64 358.55 693.76 357.96 695.6 354.22"/>
            </g>
          </g>
          <g>
            <circle class="cls-9" cx="541.18" cy="333.13" r="11.86" transform="translate(-77.05 480.25) rotate(-45)"/>
            <polyline class="cls-63" points="535.73 333.13 539.86 337.49 546.64 328.76"/>
          </g>
          <g>
            <path class="cls-22" d="m509.65,324.74c4.63,4.63,4.63,12.15,0,16.78-4.63,4.63-12.15,4.63-16.78,0s-4.63-12.15,0-16.78c4.63-4.63,12.15-4.63,16.78,0Z"/>
            <g>
              <line class="cls-63" x1="497.4" y1="329.27" x2="505.11" y2="336.98"/>
              <line class="cls-63" x1="497.4" y1="336.98" x2="505.11" y2="329.27"/>
            </g>
          </g>
          <g>
            <circle class="cls-9" cx="406.06" cy="333.13" r="11.86" transform="translate(-11.79 651.34) rotate(-76.66)"/>
            <polyline class="cls-63" points="400.61 333.13 404.73 337.49 411.51 328.76"/>
          </g>
          <g>
            <path class="cls-22" d="m374.53,324.74c4.63,4.63,4.63,12.15,0,16.78-4.63,4.63-12.15,4.63-16.78,0-4.63-4.63-4.63-12.15,0-16.78,4.63-4.63,12.15-4.63,16.78,0Z"/>
            <g>
              <line class="cls-63" x1="362.28" y1="329.27" x2="369.99" y2="336.98"/>
              <line class="cls-63" x1="362.28" y1="336.98" x2="369.99" y2="329.27"/>
            </g>
          </g>
          <g>
            <circle class="cls-9" cx="674.64" cy="333.13" r="11.86" transform="translate(194.81 912.67) rotate(-76.66)"/>
            <polyline class="cls-63" points="669.19 333.13 673.31 337.49 680.09 328.76"/>
          </g>
          <g>
            <path class="cls-22" d="m643.11,324.74c4.63,4.63,4.63,12.15,0,16.78-4.63,4.63-12.15,4.63-16.78,0-4.63-4.63-4.63-12.15,0-16.78,4.63-4.63,12.15-4.63,16.78,0Z"/>
            <g>
              <line class="cls-63" x1="630.86" y1="329.27" x2="638.57" y2="336.98"/>
              <line class="cls-63" x1="630.86" y1="336.98" x2="638.57" y2="329.27"/>
            </g>
          </g>
          <g>
            <line class="cls-59" x1="332.33" y1="465.44" x2="319.21" y2="372.98"/>
            <path class="cls-20" d="m320.1,380.87l3.02-28.47,57.7-90.36c25.28,95.26-29.73,84.55-60.72,118.83Z"/>
            <path class="cls-7" d="m320.1,380.87c-18.1-41.39,33.25-77.88,60.72-118.83,19.3,72.77-54.4,65.51-60.72,118.83Z"/>
            <g>
              <path class="cls-59" d="m351.63,467.89c0-79.11,18.85-95.76,18.85-95.76"/>
              <path class="cls-20" d="m359.17,396.56c12.2-18.72,93.74,11.64,98.45-85.45-43.55,27.07-83.57,22.36-98.45,85.45Z"/>
              <path class="cls-7" d="m359.17,396.56c16.91-37.54,71.37-32.5,98.45-85.45-43.55,27.07-83.57,22.36-98.45,85.45Z"/>
            </g>
          </g>
          <path class="cls-57" d="m379.7,409.2v55.18c0,9.14-7.41,16.53-16.55,16.53h-51.31c-9.14,0-16.55-7.4-16.55-16.53v-55.18h84.4Z"/>
          <path class="cls-17" d="m379.26,409.75v54.19c0,9.14-7.41,16.53-16.55,16.53h-49.42c19.22-10.3,33.35-35.96,46.49-70.83l19.48.11Z"/>
          <path class="cls-2" d="m601.81,390.75l-46.23-101.18,1.81-.77c2.77-1.18,4.05-4.39,2.87-7.16h0c-.8-1.88-2.54-3.05-4.44-3.25,1.38-.97,2.75-1.98,4.08-3.06,2.9-1.92,5.7-4.05,8.37-6.43,30.48-27.12,33.2-73.79,6.08-104.27-27.11-30.47-73.79-33.2-104.27-6.08-10.26,9.13-17.36,20.48-21.25,32.68-10.64,24.79-6.8,54.56,12.31,76.05,18.27,20.54,45.68,28.08,70.64,22.01-.72,1.4-.86,3.08-.19,4.63,1.18,2.77,4.39,4.05,7.16,2.87l4.16-1.78,46.37,101.49c1.06,2.32,3.81,3.35,6.13,2.28l4.12-1.88c2.32-1.06,3.35-3.81,2.28-6.13Z"/>
          <circle class="cls-12" cx="530.12" cy="198.98" r="69.95" transform="translate(260.12 696.69) rotate(-82.09)"/>
          <g class="cls-66">
            <path class="cls-47" d="m544.24,215.23c10.26.7,24.09-5.35,24.09-5.35,0,0-1.62-35.99-4.56-48.1-3.11-12.79-37.05-27.93-50.28-6.27l30.75,59.72Z"/>
            <path class="cls-54" d="m570.02,242.29l-12.17,29.45-.27,4.41-.48,7.83-.37,6.15-.5,8.25-.58,9.31h-58.34l-.06-.52-1.53-17.82-5.02-58.69-.43-4.83,2.96-.79,6.18-1.64,6.55-1.76,1.35-.37,34.96-2.84,7.42,2.34,3.34,1.04v.02l9.62,2.74.12.29,7.25,17.43Z"/>
            <path class="cls-13" d="m546.32,216.35c-12.82,3.42-24.02-2.47-23.11-25.96h0s22.34-.71,22.34-.71l.77,26.67Z"/>
            <path class="cls-55" d="m546.42,219.66l-.4-12.39c11.19-3.27,18.88-14.09,17.78-26.14l-.67-7.38c-1.29-14.17-13.82-24.62-27.99-23.33-14.17,1.29-24.62,13.82-23.34,27.99l1.46,16.09c.02.25.07.48.1.73l-.67.02.75,23.51-7.64,2.16-11.85,3.36-.64.17-.44.12c.12.15.23.31.33.46,4.72,6.59,9.26,11.94,13.59,16.21,1.06,1.04-.84,6.9-.84,6.9,0,0,40.54-15.21,52.84-2.52,0,0,1.8-12.24,3.85-21.05l-12.99-3.92-3.24-.98Z"/>
            <path class="cls-47" d="m517.96,195.08l2.66,20.29s-16.11,3.39-25.58-3.49c-.1-16.3,1.24-41.25,6.14-51.76,2.18-4.67,12.94-10.57,24.47-9.5l-7.69,44.46Z"/>
            <ellipse class="cls-11" cx="555.33" cy="179.24" rx="2.51" ry="3.59"/>
            <path class="cls-36" d="m521.79,188.63c-6.07-11.81-11.69-12.69-16.27-10.37-8.39,4.25-5.05,27.72,13.89,18.46l2.38-8.09Z"/>
            <path class="cls-11" d="m554.75,165.76c-5.98-.08-6.25-3.28-1.66-3.91,4.93-.68,9.1,4.01,1.66,3.91Z"/>
            <path class="cls-11" d="m534.18,167.54c-5.88,1.07-6.76-2.02-2.38-3.52,4.71-1.61,9.7,2.18,2.38,3.52Z"/>
            <path class="cls-37" d="m547.61,193.59c-1.79-.36-4.71-.67-8.66-.16-1.09.14-1.7,1.4-1.08,2.32,4.54,6.71,8.7,2.85,10.64.22.66-.9.19-2.16-.9-2.38Z"/>
            <path class="cls-13" d="m548.77,192.17l.28-2.26c2.27.28,3.78-1.07,4.43-2.43.64-1.34.75-3.34-.87-4.91-2.07-2.01-4.25-4.39-6.12-8.08l2.04-1.03c1.72,3.39,3.75,5.6,5.68,7.47,2.05,1.99,2.58,4.95,1.34,7.53-1.25,2.61-3.9,4.07-6.77,3.72Z"/>
            <rect class="cls-13" x="509.65" y="183.55" width="2.28" height="10.61" transform="translate(40.95 464.22) rotate(-50.66)"/>
            <ellipse class="cls-11" cx="537.56" cy="180.56" rx="2.51" ry="3.59"/>
            <path class="cls-47" d="m588.65,281.21l-31.56,2.76-5.86.5-45.97,4.04-9.55.83-22.2,1.95c-.08-21.7,1.08-41.43,1.97-49.39,1.24-11.02,10.76-15.54,17.41-17.33l.44-.12.64-.17,11.85-3.36,7.62-2.16,7.07,39.76c1.16,6.52.49,13.23-1.93,19.4l-1.78,4.53,35.29-2.38h0c6.05-9.18,7.55-20.62,4.09-31.05l-9.75-29.36,3.24.98,12.99,3.92.12.29.06-.29c15.79,7.85,22.98,39.13,25.82,56.64Z"/>
            <path class="cls-47" d="m515.62,172.61c15.46-.52,16.41-21.92,16.41-21.92,0,0-19.34-4.99-16.41,21.92Z"/>
            <path class="cls-47" d="m532.03,150.7c11.98,1.18,25.78,11.21,30.83,19.93-1.98-23.49-20.31-25.58-30.83-19.93Z"/>
          </g>
          <rect class="cls-11" x="582.58" y="250.52" width="13.78" height="132.05" rx="3.07" ry="3.07" transform="translate(-79.6 312.59) rotate(-27.9)"/>
          <path class="cls-8" d="m476.66,151.02c-28.02,28.02-28.02,73.46,0,101.47,28.03,28.03,73.46,28.02,101.47,0,28.03-28.03,30.95-77.28,2.92-105.31-28.02-28.02-76.37-24.19-104.39,3.83Zm102.56,95.36c-26.62,26.62-69.8,26.62-96.43-.01-26.62-26.62-26.62-69.8,0-96.42,26.63-26.63,69.81-26.63,96.43-.01,26.63,26.63,26.63,69.81,0,96.44Z"/>
          <rect class="cls-8" x="546.9" y="262.58" width="31.18" height="10.91" rx="3.62" ry="3.62" transform="translate(1185.48 256.95) rotate(153.5)"/>
          <rect class="cls-26" x="551.32" y="261.54" width="26.51" height="10.91" rx="3.62" ry="3.62" transform="translate(1188.97 254.05) rotate(153.5)"/>
          <path class="cls-12" d="m479.24,143.43c-28.84,28.84-28.84,75.61,0,104.45,28.85,28.85,75.61,28.84,104.45,0,28.85-28.85,28.85-75.6,0-104.45-28.84-28.84-75.6-28.85-104.45,0Zm100.02,100.02c-26.38,26.38-69.18,26.38-95.57-.01-26.38-26.38-26.38-69.18,0-95.56,26.39-26.39,69.19-26.39,95.57-.01,26.39,26.39,26.39,69.19,0,95.58Z"/>
          <g>
            <path class="cls-2" d="m702.98,43.79h-168.72c-4.72,0-8.55,3.83-8.55,8.55v88.11l31.68-20.34h145.58c4.72,0,8.55-3.83,8.55-8.55v-59.23c0-4.72-3.83-8.55-8.55-8.55Z"/>
            <g>
              <path class="cls-58" d="m710.03,35.56h-168.72c-4.72,0-8.55,3.83-8.55,8.55v86.04l30.05-18.26h147.22c4.72,0,8.55-3.83,8.55-8.55v-59.23c0-4.72-3.83-8.55-8.55-8.55Z"/>
              <g>
                <rect class="cls-16" x="544.47" y="46.33" width="15.29" height="15.29" rx="4.34" ry="4.34"/>
                <rect class="cls-16" x="544.47" y="66.66" width="15.29" height="15.29" rx="4.34" ry="4.34"/>
                <rect class="cls-16" x="544.47" y="86.99" width="15.29" height="15.29" rx="4.34" ry="4.34"/>
                <line class="cls-68" x1="569.07" y1="53.98" x2="703.4" y2="53.98"/>
                <line class="cls-68" x1="569.07" y1="74.31" x2="703.4" y2="74.31"/>
                <line class="cls-68" x1="569.07" y1="94.63" x2="703.4" y2="94.63"/>
                <polyline class="cls-48" points="546.64 50.57 552.49 57.03 562.81 44.11"/>
                <polyline class="cls-53" points="546.64 71.16 552.49 77.62 562.81 64.7"/>
                <polyline class="cls-51" points="546.64 92.08 552.49 98.54 562.81 85.61"/>
              </g>
            </g>
          </g>
          <g>
            <path class="cls-58" d="m375.18,45.67h88.35c3.16,0,5.72,2.56,5.72,5.72v101.82l9.1,13.31h-103.18c-3.16,0-5.72-2.56-5.72-5.72V51.4c0-3.16,2.56-5.72,5.72-5.72Z"/>
            <g>
              <line class="cls-68" x1="456.49" y1="69.83" x2="432" y2="69.83"/>
              <line class="cls-68" x1="456.49" y1="83.31" x2="432" y2="83.31"/>
              <line class="cls-68" x1="456.49" y1="111.03" x2="383.21" y2="111.03"/>
              <line class="cls-68" x1="456.49" y1="125.09" x2="383.21" y2="125.09"/>
              <line class="cls-68" x1="456.49" y1="139.15" x2="383.21" y2="139.15"/>
              <line class="cls-68" x1="456.49" y1="153.21" x2="425.2" y2="153.21"/>
            </g>
            <circle class="cls-3" cx="399.54" cy="78.67" r="22.24"/>
            <g class="cls-71">
              <g>
                <path class="cls-11" d="m404.03,83.84c3.26.22,7.66-1.7,7.66-1.7,0,0-.51-11.44-1.45-15.29-.99-4.07-11.78-8.88-15.99-1.99l9.78,18.99Z"/>
                <path class="cls-34" d="m412.23,92.44l-3.87,9.36-.09,1.4-.15,2.49-.12,1.95-.16,2.62-.18,2.96h-18.55l-.02-.17-.49-5.67-1.6-18.66-.14-1.54.94-.25,1.97-.52,2.08-.56.43-.12,11.12-.9,2.36.74,1.06.33h0s3.06.88,3.06.88l.04.09,2.3,5.54Z"/>
                <path class="cls-18" d="m409.89,86.81c-.65,2.8-1.22,6.69-1.22,6.69-3.91-4.03-16.8.8-16.8.8,0,0,.61-1.86.27-2.19-1.38-1.36-2.82-3.06-4.32-5.16-.03-.05-.07-.1-.1-.15l.14-.04.2-.06,3.77-1.07,7.36-2.08,6.58,2,4.13,1.25Z"/>
                <path class="cls-18" d="m404.78,86.85c.01.47-.01.93-.09,1.39h-10.34l-.35-10.75,10.46-.34.31,9.7Z"/>
                <g>
                  <path class="cls-18" d="m401.14,63.23h0c4.51-.41,8.49,2.91,8.9,7.42l.21,2.35c.39,4.35-2.82,8.21-7.17,8.6l-3.32.3c-2.82.26-5.32-1.83-5.58-4.65l-.46-5.12c-.41-4.51,2.91-8.49,7.42-8.9Z"/>
                  <path class="cls-11" d="m395.68,77.43l.84,6.45s-5.12,1.08-8.13-1.11c-.03-5.18.39-13.12,1.95-16.46.69-1.48,4.11-3.36,7.78-3.02l-2.45,14.14Z"/>
                </g>
                <path class="cls-18" d="m396.89,75.38c-1.93-3.76-3.72-4.03-5.17-3.3-2.67,1.35-1.61,8.81,4.41,5.87l.76-2.57Z"/>
                <path class="cls-11" d="m418.15,104.81l-10.03.88-1.86.16-14.62,1.28-3.04.26-7.06.62c-.02-6.9.34-13.17.63-15.7.39-3.5,3.42-4.94,5.54-5.51l.14-.04.2-.06,3.77-1.07,2.42-.69,2.25,12.64c.37,2.07.16,4.21-.61,6.17l-.57,1.44,11.22-.76h0c1.92-2.92,2.4-6.56,1.3-9.87l-3.1-9.34,1.03.31,4.13,1.25.04.09.02-.09c5.02,2.49,7.31,12.44,8.21,18.01Z"/>
                <path class="cls-11" d="m394.93,70.29c4.91-.17,5.22-6.97,5.22-6.97,0,0-6.15-1.59-5.22,6.97Z"/>
                <path class="cls-11" d="m400.15,63.32c3.81.37,8.2,3.56,9.8,6.34-.63-7.47-6.46-8.13-9.8-6.34Z"/>
              </g>
            </g>
          </g>
          <g>
            <path class="cls-44" d="m857.02,276.81l-18.49-79.62c-.26-2.08,3.5-7.06,5.33-8.1,4.99-2.86,11.16-3.27,16.79-2.1,18.36,3.82,33.97,77.23,30.91,75.46,0,0-27.56,14.39-36.48,8.54"/>
            <path class="cls-52" d="m857.9,203.13c0,.28.21.51.49.5,1.16,0,3.83-.25,4.21,2.78.38,3.06-2.54,4.79-4.29,4.88-.51.03-1.68.13-2.02.51-1.06,1.15-1.55,3.66-2.36,6.79-1.8,6.91,3.63,10.07,3.63,10.07,0,0-18.1,8.9-17.93-.02,0,0,1.43-16.41,1.35-16.5-1.41-1.41-6.9-2.02-3.45-13.72,3.2-10.84,11.15-10.07,13.17-9.71,1.71.3,7.63.67,7.22,14.42Z"/>
            <path class="cls-28" d="m847.26,190.47c3.33,4.33,9.48,12.19,10.88,13.07,0,0,6.62-15.67-9.36-16.06-1.56-.04-2.46,1.75-1.52,2.99Z"/>
            <g>
              <path class="cls-5" d="m861.28,207.29s-1.82-3.84-4.13,1.31"/>
              <path class="cls-31" d="m848.51,203.61c-1.5-.03-2.75,1.16-2.78,2.66-.03,1.5,1.16,2.75,2.66,2.78,1.5.03,2.75-1.16,2.78-2.66.03-1.5-1.16-2.75-2.66-2.78Z"/>
              <path class="cls-31" d="m837.18,204.62c1.24-.23,2.2-1.3,2.23-2.62.02-1.01-.51-1.91-1.32-2.4,0,0-1.16,3.01-.91,5.01Z"/>
              <path class="cls-18" d="m839.47,203.22l4.15,2.07s-2.03,1.48-3.12.67c-1.1-.81-1.02-2.73-1.02-2.73Z"/>
              <path class="cls-5" d="m842.64,200.21l-.66,2.96-1.44-.64c-.27-.12-.31-.48-.08-.65l2.17-1.67Z"/>
              <path class="cls-11" d="m847.96,199.1c.36.5.15-1.25-.44-1.65s-1.35-.32-1.7.19c0,0,1.28.25,2.14,1.46Z"/>
              <path class="cls-11" d="m840.14,196.14c-.6.17.66-1.07,1.38-1.02.71.06,1.25.6,1.21,1.22,0,0-1.15-.6-2.58-.2Z"/>
              <path class="cls-11" d="m845.57,201.28c-.2.5-.56.82-.8.72-.24-.1-.27-.58-.07-1.07.2-.5.56-.82.8-.72.24.1.27.58.07,1.07Z"/>
              <path class="cls-11" d="m841.73,199.45c-.19.47-.53.78-.76.69-.23-.09-.26-.55-.07-1.02.19-.47.53-.78.76-.69.23.09.26.55.07,1.02Z"/>
              <path class="cls-11" d="m840.64,211.22s5.17.99,7.78.82c2.61-.17-10.45,14.83-7.78-.82Z"/>
            </g>
          </g>
          <g>
            <path class="cls-41" d="m843.8,450.99l-1.88,13.35s-3.02,8.85-5.82,5.43c-2.8-3.43-5.57-5.24-5.57-5.24l-.92-13.88,14.19.34Z"/>
            <path class="cls-41" d="m888.42,449.97l4.15,13.32s3.16,2.77,4.3,2.7c2.08-.13,3.16-3.71,3.16-3.71l.34-12.31h-11.96Z"/>
            <path class="cls-65" d="m829.61,464.46l-11.18,9.06c-.57.42-.16,1.14.65,1.15l16.5.13c.4,0,.75-.18.89-.45l1.24-2.55c.36-.74,1.08-.8,1.01-.02l.61,2.46c-.03.39,3.91.28,3.95-.07.22-2.19-.24-9.36-.63-11.35-.06-.29-.35-.51-.74-.57h0c-.35-.05-.71.05-.92.25-1.11,1.08-4.68,4.32-6.57,3.66-1.27-.44-2.92-1.23-3.43-1.68-.35-.31-.99-.32-1.37-.03Z"/>
            <path class="cls-65" d="m900.2,461.81l6.35,10.63c.68,1.03.3,2.27-.92,3-1.99,1.18-3.61,3.54-4.86,3.57-2.26.06-5.77-2.31-7.81-3.21-1.37-.6-2.45-1.47-2.28-2.62l1.58-10.67c.02-.13.25-.18.37-.08l2.43,2.2c.8.72,2.96.62,3.49-.24.38-.62,1.28-2.61,1.28-2.61.08-.11.3-.1.37,0Z"/>
          </g>
          <g>
            <path class="cls-57" d="m866.52,274.54c5.13,9.06,7.83,15.7,10.78,27.22,3.42,13.36,40.38,126.38,41.99,150.68-4.21,1.01-32.17.87-34.83.72-8.46-24.25-29.88-103.03-33.51-118.31-.56-2.35-4.19-1.83-3.9.56,2.06,17.45,13.16,90.94,18.69,117.79-2.21,1.12-34.26.87-36.81.55-2.77-29.93-17.49-143.23,4.73-179.95,10.16-1.4,22.56.43,32.86.74Z"/>
            <path class="cls-56" d="m834.99,277.79s-9.05,22.4-9.05,54.01,10.36,111.69,10.36,111.69"/>
            <line class="cls-56" x1="897.66" y1="443.49" x2="861.51" y2="276.75"/>
            <path class="cls-56" d="m855.18,277.64s.31,28.95,13.3,26.67"/>
            <path class="cls-4" d="m833.81,278.38l41.83,31.5s1.75-17-5.69-30.95l-36.15-.55Z"/>
            <path class="cls-56" d="m828.21,305.64c13,2.28,10.91-26.53,10.91-26.53"/>
          </g>
          <path class="cls-29" d="m853.25,225.1s2.65-.77,2.21-.2c-.44.56-1.38,1.19-2.32,1.82l.11-1.62Z"/>
          <line class="cls-56" x1="862.55" y1="443.66" x2="828.95" y2="443.66"/>
          <line class="cls-56" x1="916.55" y1="443.34" x2="882.41" y2="443.66"/>
          <path class="cls-15" d="m878.96,328.86c0-.22.22-2.59.22-2.59l-1.07,3.4.85-.81Z"/>
          <path class="cls-15" d="m872.25,332.22l-.75.58s.78,1.41,1.11,1.3c0,0-.55-.67-.36-1.88Z"/>
          <g>
            <path class="cls-52" d="m837.4,226.1c-10.5-2.62-14.52,23.77-17.41,35.98-.12.51-20.16-19.01-20.16-19.01,0,0-.23-.31-.62-.81-.6-1.59-2.05-5.25-2.74-5.11-.2.04-.56.16-.98.33-2.98-3.75-6.48-7.94-6.89-7.5-1.06,1.15,3.01,7.34,3.01,7.34,0,0-.27.71-1.06,1.06s-1.24.88-1.5,1.95c-.27,1.06-1.33,1.68-1.5,2.3-.18.62,3.77,5.28,6.01,6.9,0,0,27.34,37.92,33.75,33.4,0,0,7.35-5.19,3.65-26.37,0-2.06-.02-3.48.06-3.81,0,0,1.59-20.92,5.03-25.25.38-.48,1.52-1.36,1.37-1.4Z"/>
            <g>
              <path class="cls-31" d="m794.26,240.5s.09,1.5-1.15,1.77c0,0-.27,1.59-1.86,1.24,0,0,.44.71-.53.88,0,0,4.16,4.51,3.54-3.89Z"/>
              <path class="cls-11" d="m795.08,237.64c-.82,1.03-2.33,1.92-3.1,2.56.06-.11-.04-.3-.03-.27.11.13.51.28.73.35.41.14,1,.2,1.5.28.16.03.4.03.7.3.35.34.24.82.05,1.17-.2.41-.39.83-.65,1.23l-.1-.02.23-1.31c.02-.21.13-.47.01-.57-1.03-.2-2.22.12-3.18-.72-.82-.95.74-1.57,1.41-1.9,0,0,2.38-1.19,2.38-1.19l.04.09h0Z"/>
              <path class="cls-11" d="m791.55,237.11c.7-.23,1.41-.16,1.51.59.01.18.02.6-.22.86-.43-.37-1-.94-1.37-1.38,0,0,.07-.07.07-.07h0Z"/>
              <path class="cls-11" d="m789.76,239.34c1.57.36,2.79,1.3,3.78,2.47.13.11.3.21.57.16l.08.06c-.32.43-.95.36-1.35.12-1.23-.69-2.27-1.66-3.16-2.74l.08-.06h0Z"/>
              <path class="cls-11" d="m793.23,242.28c.6,1.22-.38,2.58-1.76,2.27-1.01-.23-1.73-1.04-2.17-1.82-.28-.49-.5-1.03-.56-1.67l.08-.06c.69.8,1.38,1.65,2.22,2.28,1.1.87,1.92.24,2.09-1.02,0,0,.1.02.1.02h0Z"/>
              <path class="cls-11" d="m791.39,243.24c.86,1.27-.15,2.77-1.65,2.35-.55-.17-1.33-.78-1.17-1.43,0,0,.07-.07.07-.07.21.26.49.36.82.43.43.12.96.28,1.34.03.3-.34.46-.86.5-1.3,0,0,.1,0,.1,0h0Z"/>
            </g>
          </g>
          <path class="cls-39" d="m850.1,298.57h46.56v23.81c0,3.5-2.84,6.34-6.34,6.34h-40.22v-30.15h0Z" transform="translate(1777.97 106.54) rotate(147.35)"/>
          <path class="cls-10" d="m875.81,293.39s6.32,2.93,1.44,20.85c-.26.95-.48,2.03-.29,2.99l1.1,7.7c.16.82.28,1.93-.42,2.4-.88.58-5.86,5.17-6.47,5.37-1.23.41.11-5.68-.09-8.88-.04-.57-.17,2.03-.25,3.17l-.15,2.5c-1.49-.68-1.46-3.56-1.69-4.53-.31-1.3-.06-2.13.09-2.44.68-1.42,1.98-4.24,2.18-6.77.12-1.49-.92-7.02-1.79-17.32l6.35-5.03Z"/>
          <path class="cls-52" d="m876.62,249.79c11.72,65.43,4.11,77.86,3.34,78.37-.96.64-6.43,5.66-7.09,5.89-1.35.45.12-6.22-.1-9.73-.04-.63-.19,2.22-.27,3.47l-.17,2.74c-1.63-.75-1.6-3.9-1.86-4.96-.34-1.42-.06-2.33.1-2.68.75-1.55,2.17-4.65,2.39-7.42.13-1.63-10.97-54.77-12.92-62.58-2.65-10.61.69-22.8,4.42-23.21,4.64-.51,11.19,14.7,12.16,20.12Z"/>
          <path class="cls-65" d="m878.38,246.55c-3.79-11.11-9.23-17.32-13.85-16.88-1.96-.87-4.66-1.96-6.18-2.07,0,0-9.48,3.03-20.97-.03.02-.59.02-1.08.02-1.47,0,0-6.8-.95-9.51,4.59s-8.73,30.3-8.73,30.3l-16.74-16.04-6.49,11.79s23.82,30.07,30.66,27.95c2.11-.66,3.96-5.78,5.5-12.77.65,2.11,1.08,3.62.96,3.97,0,0,4.88,3.84,30.72.31,1.81,12.69,3.88,27.44,5.74,37.14l15.33-1.65c-.47-2,2.05-40.18-6.46-65.15Z"/>
          <g>
            <path class="cls-33" d="m869.36,177.47l7.8-7.8h29.38c5.98,0,10.83-4.85,10.83-10.83v-2.35c0-5.98-4.85-10.83-10.83-10.83h-26.36c-5.98,0-10.83,4.85-10.83,10.83v20.98Z"/>
            <g>
              <path class="cls-21" d="m901.77,157.37c0,1.49,1.21,2.7,2.7,2.7s2.7-1.21,2.7-2.7-1.21-2.7-2.7-2.7-2.7,1.21-2.7,2.7Z"/>
              <path class="cls-21" d="m891.87,157.37c0,1.49,1.21,2.7,2.7,2.7s2.7-1.21,2.7-2.7-1.21-2.7-2.7-2.7-2.7,1.21-2.7,2.7Z"/>
              <path class="cls-21" d="m881.96,157.37c0,1.49,1.21,2.7,2.7,2.7s2.7-1.21,2.7-2.7-1.21-2.7-2.7-2.7-2.7,1.21-2.7,2.7Z"/>
            </g>
          </g>
          <path class="cls-60" d="m858.42,227.57l-4.3-5.62s-5.12,3.64-12.81,6.32l.13,2.01c.26,3.96,4.6,6.27,8.02,4.26,3.57-2.09,7.4-4.69,8.95-6.98Z"/>
          <path class="cls-60" d="m840.29,221.64s-1.28,4.87,1.13,6.73l-.69,1.69c-.8,2.32-4.23,1.92-4.44-.53-.08-.96-.08-1.84.06-2.53l3.94-5.36Z"/>
        </g>
      </g>
    </g>
  </g>
</svg>